<?xml version="1.0" standalone="no"?>
<!DOCTYPE svg PUBLIC "-//W3C//DTD SVG 20010904//EN"
 "http://www.w3.org/TR/2001/REC-SVG-20010904/DTD/svg10.dtd">
<svg version="1.0" xmlns="http://www.w3.org/2000/svg"
 width="568.000000pt" height="568.000000pt" viewBox="0 0 568.000000 568.000000"
 preserveAspectRatio="xMidYMid meet">
<metadata>
Created by potrace 1.14, written by Peter Selinger 2001-2017
</metadata>
<g transform="translate(0.000000,568.000000) scale(0.100000,-0.100000)"
fill="#000000" stroke="none">
<path d="M756 4359 c-109 -36 -235 -102 -276 -144 -38 -39 -49 -78 -45 -154 7
-109 79 -250 171 -330 112 -99 244 -153 434 -177 73 -9 135 -33 164 -63 l27
-28 -93 -38 c-376 -155 -568 -383 -582 -690 -2 -37 2 -75 18 -163 32 -175 173
-405 355 -579 88 -85 104 -83 122 12 13 72 23 92 110 220 67 98 112 195 122
265 18 113 25 184 26 271 l1 56 43 -1 c40 -2 154 15 187 28 10 4 40 -17 83
-58 137 -129 320 -234 513 -295 93 -29 103 -35 115 -63 18 -43 119 -143 201
-200 37 -26 110 -69 163 -97 120 -63 138 -78 213 -172 33 -41 93 -106 133
-143 191 -180 334 -231 831 -291 90 -11 204 -18 285 -19 46 -1 83 -4 83 -7 0
-3 19 -17 43 -29 55 -29 107 -22 135 18 40 57 45 91 48 312 3 188 1 222 -15
268 -11 33 -14 52 -7 52 6 0 43 3 81 6 68 5 71 4 118 -31 62 -46 80 -78 105
-180 12 -46 32 -108 47 -139 36 -77 155 -224 368 -459 84 -92 123 -114 181
-103 42 8 92 58 99 99 7 41 -3 285 -18 432 -22 208 -44 308 -82 374 -26 46
-180 205 -226 236 -15 9 -27 22 -27 27 0 5 4 7 8 4 12 -7 103 37 130 63 12 12
22 27 22 34 0 17 -93 151 -253 366 -490 658 -913 1021 -1367 1174 -111 37
-300 82 -386 92 -28 3 -59 7 -70 9 -86 16 -446 24 -551 12 -26 -3 -73 -8 -103
-11 -187 -19 -426 -81 -603 -157 -137 -58 -136 -58 -157 47 -28 141 -88 223
-196 268 -134 56 -389 105 -544 105 -78 0 -111 -5 -184 -29z m195 -48 c4 -1
10 -16 13 -34 7 -37 53 -90 100 -114 75 -39 204 -11 258 56 l23 29 68 -23 c37
-13 83 -35 101 -49 38 -29 72 -92 82 -151 17 -111 68 -184 179 -257 123 -81
137 -276 29 -397 -62 -69 -122 -96 -214 -96 -65 0 -85 4 -143 33 -38 19 -71
41 -74 50 -17 54 -67 142 -100 176 -53 54 -120 82 -243 101 -58 9 -121 21
-140 27 -42 12 -157 67 -185 88 -51 38 -123 120 -148 169 -35 69 -56 179 -39
215 22 48 178 131 312 165 61 15 81 17 121 12z m2034 -255 c147 -12 163 -16
169 -41 3 -13 8 -29 11 -37 4 -10 -13 -13 -83 -12 -124 2 -249 -26 -355 -79
l-87 -43 -9 34 c-14 48 -53 95 -111 133 -27 18 -48 34 -47 36 2 2 46 6 98 9
52 4 95 7 96 9 5 3 240 -3 318 -9z m-597 -60 c93 -48 130 -74 112 -79 -8 -2
-51 -14 -95 -26 -121 -32 -251 -100 -320 -166 l-58 -56 -56 46 c-31 25 -84 67
-118 92 -34 26 -59 51 -57 55 10 15 193 87 294 115 49 13 202 49 223 52 4 1
38 -15 75 -33z m987 -3 c181 -44 379 -131 528 -229 l89 -59 -49 -6 c-119 -15
-288 4 -387 43 -59 23 -167 93 -217 140 -40 38 -99 116 -99 130 0 10 44 4 135
-19z m-156 -114 c7 -2 37 -26 65 -52 28 -27 63 -56 79 -65 15 -9 27 -20 27
-25 0 -5 -51 -86 -114 -181 -63 -95 -119 -183 -126 -196 -16 -30 -38 -23 -152
46 -209 127 -330 232 -342 297 -9 48 -1 58 78 101 113 62 210 84 361 81 61 -1
116 -4 124 -6z m-654 -96 c14 -122 31 -163 101 -231 l64 -63 -41 -51 c-22 -29
-54 -78 -70 -110 -16 -32 -32 -58 -34 -58 -16 0 -345 228 -443 307 l-53 42 37
36 c80 78 169 125 304 161 128 35 127 35 135 -33z m1098 -152 c53 -10 128 -16
185 -15 61 1 102 -2 111 -9 8 -7 36 -45 63 -86 48 -74 92 -191 103 -273 8 -68
13 -128 10 -128 -2 0 -36 18 -77 39 -117 63 -155 69 -442 72 -194 2 -286 13
-369 46 l-47 19 132 201 132 200 55 -24 c31 -14 96 -33 144 -42z m486 -47
c101 -86 246 -228 346 -340 113 -126 145 -163 145 -168 0 -7 -162 -28 -252
-32 -91 -5 -167 8 -169 29 -1 7 -3 44 -5 82 -5 95 -28 202 -60 283 -27 68 -89
174 -105 180 -14 5 0 22 18 22 9 0 46 -25 82 -56z m-2168 19 c12 -10 36 -30
53 -44 87 -72 448 -329 462 -329 9 0 144 -93 140 -97 -2 -2 -34 -12 -72 -23
-37 -11 -102 -36 -143 -55 l-75 -36 -100 100 c-56 54 -148 146 -206 203 l-105
103 11 45 c6 25 10 69 9 98 -1 28 0 52 1 52 2 0 13 -8 25 -17z m911 -223 c164
-107 335 -187 460 -214 l27 -6 -16 -53 c-17 -59 -55 -140 -82 -175 l-17 -24
-90 41 c-119 54 -348 173 -456 238 -63 37 -62 36 -22 116 16 32 93 137 100
137 2 0 45 -27 96 -60z m-1592 -57 c42 -129 84 -219 148 -322 29 -46 51 -85
49 -87 -1 -2 -29 -7 -61 -12 -84 -13 -185 -6 -274 19 -52 15 -102 22 -154 21
-43 -1 -78 2 -78 7 0 4 -18 16 -40 26 -48 22 -114 16 -143 -13 -40 -41 -20
-134 39 -181 38 -30 57 -26 102 20 l39 42 12 -48 c13 -54 57 -104 93 -107 13
0 30 -2 38 -3 44 -5 105 54 116 112 5 24 11 33 23 31 34 -7 17 -274 -25 -401
-9 -27 -47 -95 -84 -151 -75 -113 -95 -148 -111 -191 l-11 -30 -65 70 c-71 77
-155 197 -201 291 -64 128 -89 276 -68 408 15 95 79 215 158 297 l44 47 23
-24 c76 -79 210 -71 269 16 20 29 23 43 18 84 -3 27 -10 54 -16 60 -21 21 -8
35 53 59 34 14 67 26 74 26 6 1 21 -29 33 -66z m780 -153 c133 -129 179 -180
165 -181 -11 0 -33 -2 -50 -5 -31 -4 -218 -8 -266 -5 -23 1 -33 13 -67 79 -22
42 -50 100 -62 129 l-22 51 54 55 c29 29 55 55 58 55 3 1 89 -79 190 -178z
m-492 20 c26 0 64 4 85 9 21 5 37 5 37 0 0 -5 21 -52 46 -105 25 -53 44 -98
42 -100 -14 -13 -288 67 -308 91 -10 12 -70 131 -70 139 0 2 27 -5 61 -15 33
-10 82 -19 107 -19z m2309 -51 c83 -22 91 -28 105 -82 20 -79 16 -270 -6 -337
-10 -30 -20 -58 -22 -62 -8 -14 -389 115 -605 204 l-25 11 43 86 c24 47 49
110 56 139 l12 53 202 -1 c112 -1 220 -6 240 -11z m-862 -220 c68 -46 134
-120 154 -175 11 -28 27 -88 35 -133 27 -142 66 -192 202 -257 43 -21 98 -57
125 -83 39 -38 51 -59 69 -121 29 -95 78 -166 133 -188 14 -6 8 -14 -35 -42
-79 -52 -123 -153 -98 -225 14 -40 21 -77 13 -72 -4 3 -30 7 -58 11 -265 32
-438 110 -589 265 l-49 50 26 38 c43 63 60 120 60 197 0 87 -13 138 -52 197
-52 77 -128 111 -214 95 -69 -13 -155 -117 -173 -209 -2 -11 -5 -21 -7 -23 -7
-7 -152 100 -198 146 -59 59 -77 94 -93 178 -34 182 30 348 163 416 32 17 201
72 256 84 37 8 49 4 165 -56 69 -36 143 -78 165 -93z m1177 64 c64 -26 252
-23 407 7 72 13 70 14 82 -17 34 -90 50 -261 35 -363 -14 -88 -25 -119 -44
-115 -9 1 -39 6 -67 9 -27 4 -61 8 -75 11 -14 3 -41 7 -60 10 -19 4 -55 11
-80 16 -25 6 -52 12 -60 14 -8 2 -67 16 -130 31 -63 15 -117 28 -120 29 -35 7
-51 19 -44 33 31 75 51 264 35 346 -5 25 -6 48 -4 50 3 3 23 -6 44 -20 21 -13
58 -32 81 -41z m-2424 -69 l63 -7 52 -76 c29 -41 56 -82 61 -89 7 -12 -4 -13
-70 -7 -44 4 -94 14 -112 23 -34 15 -202 175 -202 191 0 5 33 1 73 -10 39 -10
100 -22 135 -25z m453 -42 c-11 -21 -22 -55 -26 -75 -6 -32 -12 -38 -44 -46
-67 -18 -93 -20 -105 -8 -19 19 -106 140 -106 148 0 3 48 7 107 8 58 0 108 2
109 4 1 1 21 3 44 5 l41 3 -20 -39z m2686 -169 c168 -233 160 -216 111 -232
-47 -14 -74 -16 -148 -7 -101 12 -99 10 -89 59 17 92 21 135 21 210 -1 42 -4
87 -7 98 -12 38 10 13 112 -128z m-1588 88 l83 -34 -29 -18 c-16 -10 -45 -25
-65 -33 l-36 -15 -25 70 c-13 38 -21 69 -18 67 4 -2 44 -18 90 -37z m383 -142
c117 -40 214 -73 216 -74 6 -6 -37 -80 -65 -114 l-29 -33 -123 41 c-121 40
-352 145 -350 159 0 7 118 89 131 91 4 0 103 -31 220 -70z m-1524 -9 c3 -36
-2 -37 -33 -6 -26 26 -23 36 10 36 16 0 21 -7 23 -30z m-129 -19 l21 -28 -33
11 c-17 7 -48 19 -67 28 l-35 16 47 1 c40 1 49 -3 67 -28z m1466 -165 c55 -24
130 -53 168 -65 37 -13 65 -26 62 -31 -5 -8 -107 -60 -118 -60 -3 0 -23 16
-44 35 -21 19 -82 58 -135 85 -62 32 -107 63 -123 84 -40 53 -31 61 33 26 31
-17 102 -51 157 -74z m576 75 c41 -10 86 -21 101 -25 24 -5 26 -9 22 -48 -8
-79 -12 -88 -42 -88 -15 0 -54 5 -87 10 -33 5 -80 13 -105 16 -25 3 -48 9 -52
12 -7 8 71 142 82 142 4 0 40 -8 81 -19z m265 -62 c24 -6 44 -14 44 -17 0 -4
-7 -25 -16 -48 -16 -41 -17 -42 -60 -41 -42 1 -44 2 -39 27 3 14 6 40 7 58 3
36 3 36 64 21z m254 -45 c19 -3 60 -9 90 -14 30 -5 75 -12 100 -15 51 -6 136
-66 259 -184 l74 -70 -33 -28 c-43 -36 -72 -100 -66 -147 11 -85 64 -141 156
-167 56 -16 51 -11 57 -53 4 -29 1 -37 -14 -42 -60 -19 -96 -41 -113 -69 -24
-39 -26 -87 -3 -125 19 -33 81 -70 120 -73 26 -2 28 -5 31 -56 2 -39 -2 -59
-14 -72 -31 -34 -57 -23 -126 54 -127 141 -125 137 -118 185 11 78 2 190 -20
240 -47 106 -136 151 -218 108 -37 -19 -33 -24 -57 74 -27 105 -53 141 -149
205 -57 37 -115 96 -117 118 -3 32 4 75 18 110 17 42 15 41 143 21z m-620
-107 c47 -9 109 -19 138 -22 l52 -7 -27 -51 -28 -52 -120 0 c-113 1 -265 10
-310 19 -11 3 -23 5 -27 5 -20 2 -4 20 30 34 20 8 64 34 97 56 42 29 68 40 85
37 14 -2 63 -11 110 -19z m350 -36 c27 -1 68 -57 53 -72 -5 -5 -46 -12 -92
-15 l-82 -7 16 39 c9 22 19 44 21 50 3 6 17 10 32 8 15 -1 38 -2 52 -3z m-263
-175 c135 1 173 -2 177 -12 3 -8 2 -13 -2 -12 -21 6 -102 -16 -133 -37 -109
-71 -53 -195 119 -264 45 -17 59 -27 55 -40 -3 -13 -17 -17 -71 -17 -37 0 -76
-5 -87 -11 -18 -11 -21 -6 -41 53 -41 120 -96 172 -252 234 -78 31 -122 62
-143 102 -9 18 -4 18 98 11 59 -4 185 -7 280 -7z"/>
<path d="M1360 4166 c-46 -14 -61 -25 -87 -59 -50 -65 26 -173 131 -184 74 -9
136 45 136 118 0 32 -30 93 -54 111 -30 22 -84 28 -126 14z"/>
<path d="M697 4133 c-32 -16 -69 -87 -59 -112 16 -43 58 -41 77 4 8 20 21 43
30 51 20 20 19 37 -2 57 -16 14 -21 14 -46 0z"/>
<path d="M955 4114 c-100 -34 -137 -137 -75 -208 51 -57 160 -77 227 -42 38
19 83 71 84 97 1 10 2 25 3 32 3 14 -21 66 -38 83 -43 43 -136 61 -201 38z
m122 -82 c31 -17 43 -42 32 -64 -34 -64 -179 -50 -179 17 0 49 90 78 147 47z"/>
<path d="M1462 3870 c-78 -48 -69 -163 14 -190 100 -33 197 67 149 155 -30 57
-102 72 -163 35z"/>
<path d="M1186 3861 c-16 -11 -37 -33 -48 -49 -56 -90 -12 -158 111 -169 50
-5 61 -2 85 19 76 65 3 218 -103 218 -9 0 -29 -9 -45 -19z"/>
<path d="M1632 3683 c-63 -41 -81 -116 -40 -168 29 -37 93 -65 150 -65 40 0
50 4 72 31 29 34 32 58 15 125 -24 96 -113 131 -197 77z"/>
<path d="M1194 3161 c-58 -35 -69 -134 -21 -179 89 -83 220 29 165 141 -29 58
-87 73 -144 38z"/>
<path d="M853 2661 c-42 -26 -64 -71 -70 -140 -7 -73 9 -129 47 -168 65 -66
141 -49 186 43 24 49 26 63 21 121 -9 95 -50 152 -115 160 -26 3 -47 -2 -69
-16z"/>
<path d="M2854 2915 c-40 -16 -54 -36 -56 -76 -4 -122 104 -289 186 -289 95 0
161 127 115 221 -18 36 -80 98 -119 119 -56 30 -96 38 -126 25z"/>
<path d="M3235 2306 c-94 -42 -104 -147 -19 -203 34 -22 113 -22 147 0 82 54
80 155 -5 198 -43 22 -81 24 -123 5z"/>
<path d="M3449 2093 c-69 -42 -75 -129 -12 -185 46 -42 132 -26 166 31 58 99
-57 215 -154 154z"/>
<path d="M4773 2330 c-28 -11 -53 -59 -53 -100 0 -72 58 -140 121 -140 92 0
120 151 41 223 -23 21 -79 30 -109 17z"/>
</g>
</svg>
